#!OML:ASF I:\Actors\actors\Patient Classification 2\Patient 1\Session 1\actor1.ASF
:FULLY-SPECIFIED
:DEGREES
256
root -1.34483 17.9917 5.69893 -4.20786 -3.99281 -5.96698
lowerback 5.09912 2.90098 1.4376
upperback 0.135843 3.95725 0.252416
thorax -2.63447 1.95531 -0.83002
lowerneck -4.84304 -11.9507 -9.92076
upperneck -1.04479 -15.571 9.68291
head 1.99186 -7.63913 3.76471
rclavicle 1.29707e-014 -1.90833e-014
rhumerus -11.6882 36.8562 -62.9791
rradius 101.075
rwrist 2.58188
rhand -2.20236 -16.6387
rfingers 7.12502
rthumb 23.4793 -45.226
lclavicle 1.29707e-014 -1.90833e-014
lhumerus -42.8916 -4.3359 82.1783
lradius 58.456
lwrist 3.53379
lhand -1.40126 -20.381
lfingers 7.12502
lthumb 24.2475 8.10585
rfemur 17.4748 -1.63036 22.9393
rtibia -7.74545
rfoot -12.4404 -10.7584
rtoes 2.14027
lfemur 25.2802 -4.88538 -10.5335
ltibia -23.7897
lfoot 0.998373 18.0048
ltoes -12.9515
257
root -1.33617 17.9887 5.70569 -4.20798 -4.54746 -5.89602
lowerback 5.0233 2.84081 1.35667
upperback 0.178744 3.87026 0.242991
thorax -2.55447 1.91393 -0.78295
lowerneck -4.96293 -11.8517 -9.84662
upperneck -0.980363 -15.4379 9.74189
head 2.01746 -7.5691 3.77218
rclavicle -5.02925e-014 1.59028e-015
rhumerus -10.7885 35.5495 -61.63
rradius 101.426
rwrist 3.41733
rhand -3.33708 -16.33
rfingers 7.12502
rthumb 22.3904 -45.0523
lclavicle -5.02925e-014 1.59028e-015
lhumerus -42.5901 -4.28307 81.9848
lradius 58.3559
lwrist 3.4559
lhand -1.50204 -20.4045
lfingers 7.12502
lthumb 24.1509 8.09517
rfemur 17.7981 -1.07255 22.9091
rtibia -8.42123
rfoot -12.1926 -10.9668
rtoes 2.12468
lfemur 25.4379 -4.60578 -10.6453
ltibia -23.722
lfoot 0.725477 18.2329
ltoes -12.3295
258
root -1.32834 17.9833 5.71335 -4.27491 -5.09049 -5.83674
lowerback 4.98105 2.78116 1.24379
upperback 0.260686 3.78269 0.243921
thorax -2.45566 1.87288 -0.70826
lowerneck -5.08099 -11.7448 -9.68134
upperneck -0.949391 -15.2966 9.75949
head 2.0218 -7.49598 3.75716
rclavicle 2.25621e-014 7.95139e-015
rhumerus -10.2302 33.5002 -60.6631
rradius 101.851
rwrist 4.88962
rhand -3.79716 -15.3348
rfingers 7.12502
rthumb 21.9487 -44.1096
lclavicle 2.25621e-014 7.95139e-015
lhumerus -42.2985 -4.25347 81.7742
lradius 58.3387
lwrist 3.48676
lhand -1.54971 -20.4334
lfingers 7.12502
lthumb 24.1052 8.07234
rfemur 18.129 -0.53182 22.8931
rtibia -8.95014
rfoot -11.9804 -11.0946
rtoes 2.04766
lfemur 25.6894 -4.25986 -10.7295
ltibia -23.7083
lfoot 0.519474 18.3439
ltoes -11.647
259
root -1.31885 17.9775 5.72081 -4.32756 -5.61736 -5.81757
lowerback 4.82096 2.70948 1.09719
upperback 0.426936 3.6771 0.331362
thorax -2.21203 1.82488 -0.516247
lowerneck -5.37159 -11.6135 -9.53104
upperneck -0.879338 -15.1056 9.689
head 2.05424 -7.39426 3.71132
rclavicle -1.73688e-014 -7.95139e-016
rhumerus -6.98867 32.8102 -56.7616
rradius 102.196
rwrist 4.84877
rhand -5.34087 -15.8716
rfingers 7.12502
rthumb 20.4659 -44.813
lclavicle -1.73688e-014 -7.95139e-016
lhumerus -41.9939 -4.10204 81.6385
lradius 58.4786
lwrist 3.45331
lhand -1.69106 -20.6263
lfingers 7.12502
lthumb 23.9697 7.89739
rfemur 18.382 -0.0093889 22.9166
rtibia -9.34719
rfoot -11.8121 -11.2132
rtoes 2.08169
lfemur 25.9204 -3.90196 -10.7732
ltibia -23.7076
lfoot 0.403953 18.4462
ltoes -11.5465
260
root -1.30605 17.9718 5.72784 -4.36262 -6.07627 -5.77769
lowerback 4.42628 2.57059 0.839897
upperback 0.756651 3.47412 0.502486
thorax -1.68163 1.7306 -0.155189
lowerneck -5.88394 -11.4085 -9.42991
upperneck -0.812136 -14.7926 9.59033
head 2.11144 -7.2263 3.66136
rclavicle 1.57785e-015 3.18055e-015
rhumerus -3.81781 30.9304 -53.1848
rradius 102.674
rwrist 5.5815
rhand -5.42638 -16.1424
rfingers 7.12502
rthumb 20.3837 -45.0926
lclavicle 1.57785e-015 3.18055e-015
lhumerus -41.5813 -3.67619 81.5281
lradius 58.7582
lwrist 3.40097
lhand -1.87861 -21.0526
lfingers 7.12502
lthumb 23.7898 7.49459
rfemur 18.5913 0.452185 22.9028
rtibia -9.69798
rfoot -11.6643 -11.3531
rtoes 2.03605
lfemur 26.1194 -3.6104 -10.8522
ltibia -23.7312
lfoot 0.246782 18.5932
ltoes -11.6201
261
root -1.29102 17.9662 5.73644 -4.38914 -6.41117 -5.74501
lowerback 4.87431 2.48846 1.04982
upperback 0.501468 3.38005 0.339797
thorax -2.17294 1.67766 -0.462577
lowerneck -6.02315 -11.2753 -9.31015
upperneck -0.258211 -14.6459 9.58022
head 2.27671 -7.14662 3.62719
rclavicle -5.49888e-014 3.18055e-015
rhumerus -2.29145 28.185 -50.8902
rradius 103.521
rwrist 6.97722
rhand -9.50096 -15.9151
rfingers 7.12502
rthumb 16.4642 -45.2365
lclavicle -5.49888e-014 3.18055e-015
lhumerus -42.0988 -4.06717 81.1719
lradius 59.3761
lwrist 3.65732
lhand -1.92724 -21.5045
lfingers 7.12502
lthumb 23.7432 7.04875
rfemur 18.7535 0.793099 22.8785
rtibia -9.95505
rfoot -11.5195 -11.4678
rtoes 1.5355
lfemur 26.2951 -3.44566 -10.9343
ltibia -23.7904
lfoot -0.00290975 18.7277
ltoes -10.9525
262
root -1.27372 17.9616 5.74785 -4.39419 -6.64957 -5.74406
lowerback 5.02627 2.35891 1.18169
upperback 0.458246 3.2154 0.26741
thorax -2.29327 1.59288 -0.607815
lowerneck -6.33246 -11.1563 -9.09155
upperneck 0.206843 -14.4975 9.37949
head 2.41994 -7.0652 3.51816
rclavicle 1.33434e-014 1.66979e-014
rhumerus -0.293641 24.5503 -48.4918
rradius 104.464
rwrist 8.7223
rhand -13.0366 -15.9857
rfingers 7.12502
rthumb 13.0579 -45.557
lclavicle 1.33434e-014 1.66979e-014
lhumerus -42.4315 -4.27451 80.8152
lradius 60.1947
lwrist 4.11619
lhand -1.89855 -21.7054
lfingers 7.12502
lthumb 23.7707 6.84429
rfemur 18.8444 1.04068 22.8657
rtibia -10.0735
rfoot -11.4517 -11.533
rtoes 1.09917
lfemur 26.4581 -3.3491 -11.0003
ltibia -23.8988
lfoot -0.193651 18.8271
ltoes -10.1465
263
root -1.25482 17.9588 5.76078 -4.34941 -6.78859 -5.75744
lowerback 5.04427 2.2172 1.23373
upperback 0.509233 3.02907 0.265515
thorax -2.25135 1.49998 -0.625704
lowerneck -6.77812 -11.0458 -8.80752
upperneck 0.610943 -14.3417 8.99652
head 2.54747 -6.98083 3.34269
rclavicle 2.1593e-014 7.15625e-015
rhumerus 1.93824 19.8767 -46.3383
rradius 105.334
rwrist 11.2071
rhand -17.7997 -16.6998
rfingers 7.12502
rthumb 8.46368 -46.5102
lclavicle 2.1593e-014 7.15625e-015
lhumerus -42.6457 -4.34231 80.4712
lradius 61.1694
lwrist 4.58937
lhand -1.75854 -21.5883
lfingers 7.12502
lthumb 23.905 6.94382
rfemur 18.8025 0.956315 22.763
rtibia -10.0161
rfoot -11.3646 -11.3169
rtoes 1.08018
lfemur 26.5807 -3.2901 -11.0637
ltibia -24.0692
lfoot -0.204337 18.8681
ltoes -9.81576
264
root -1.23533 17.9581 5.77491 -4.21694 -6.7821 -5.82138
lowerback 5.08171 2.03083 1.30953
upperback 0.485051 2.78565 0.258607
thorax -2.29768 1.37736 -0.660924
lowerneck -7.05942 -10.8581 -8.4822
upperneck 0.879221 -14.0936 8.65165
head 2.60231 -6.85582 3.19318
rclavicle -2.36057e-014 8.74653e-015
rhumerus 4.21281 14.0582 -44.8832
rradius 106.352
rwrist 12.4289
rhand -20.031 -17.9783
rfingers 7.12502
rthumb 6.30984 -47.8643
lclavicle -2.36057e-014 8.74653e-015
lhumerus -42.9978 -4.36835 80.0185
lradius 62.3451
lwrist 5.05326
lhand -1.43363 -21.2343
lfingers 7.12502
lthumb 24.2165 7.25663
rfemur 18.5527 0.941505 22.7595
rtibia -9.71383
rfoot -11.5496 -11.1983
rtoes 1.19791
lfemur 26.606 -3.33015 -11.0746
ltibia -24.3064
lfoot -0.11746 18.8126
ltoes -9.03709
265
root -1.21395 17.9596 5.79111 -4.01786 -6.61489 -5.92509
lowerback 5.22698 1.80924 1.47046
upperback 0.353664 2.50247 0.213625
thorax -2.51088 1.23182 -0.786026
lowerneck -7.1429 -10.6621 -8.25288
upperneck 1.0386 -13.8417 8.42512
head 2.61019 -6.73262 3.10555
rclavicle 9.81499e-016 -7.95139e-015
rhumerus 6.34743 7.39344 -44.4609
rradius 107.508
rwrist 12.2879
rhand -24.6259 -19.4735
rfingers 7.12502
rthumb 1.87285 -49.4451
lclavicle 9.81499e-016 -7.95139e-015
lhumerus -43.5466 -4.4467 79.4715
lradius 63.772
lwrist 5.64402
lhand -1.22075 -20.9507
lfingers 7.12502
lthumb 24.4206 7.51286
rfemur 18.0709 0.772669 22.7655
rtibia -9.05446
rfoot -11.8865 -10.9926
rtoes 1.0205
lfemur 26.5421 -3.46844 -11.0583
ltibia -24.5991
lfoot 0.0793604 18.6756
ltoes -7.90286
